<?xml version="1.0" encoding="UTF-8"?>
<!DOCTYPE svg PUBLIC "-//W3C//DTD SVG 1.1//EN" "http://www.w3.org/Graphics/SVG/1.1/DTD/svg11.dtd">
<svg xmlns="http://www.w3.org/2000/svg" version="1.1" width="500px" height="500px" style="shape-rendering:geometricPrecision; text-rendering:geometricPrecision; image-rendering:optimizeQuality; fill-rule:evenodd; clip-rule:evenodd" xmlns:xlink="http://www.w3.org/1999/xlink">
<g><path style="opacity:0.999" fill="#d3d3d3" d="M 104.5,120.5 C 135.916,150.415 166.916,180.915 197.5,212C 166.986,242.68 136.32,273.18 105.5,303.5C 74.7257,273.058 44.0591,242.725 13.5,212.5C 43.8544,181.812 74.1878,151.146 104.5,120.5 Z M 171.5,231.5 C 159.167,243.167 147.167,255.167 135.5,267.5C 125.202,277.298 115.035,287.298 105,297.5C 76.5,269 48,240.5 19.5,212C 38.0347,193.298 56.7014,174.798 75.5,156.5C 68.9146,180.34 62.248,204.173 55.5,228C 56.7815,233.784 60.1149,237.951 65.5,240.5C 67.5405,239.764 69.5405,238.931 71.5,238C 84.9921,221.343 99.6587,205.843 115.5,191.5C 112.53,203.079 112.03,214.746 114,226.5C 120.912,239.256 131.412,243.423 145.5,239C 154.945,234.555 162.112,227.721 167,218.5C 167.667,216.833 167.667,215.167 167,213.5C 158.916,218.459 150.749,223.293 142.5,228C 138.136,230.111 134.302,229.277 131,225.5C 129.449,218.582 129.116,211.582 130,204.5C 131.641,195.794 133.475,187.127 135.5,178.5C 131.224,166.686 123.89,164.186 113.5,171C 110.06,173.042 107.06,175.542 104.5,178.5C 98.5578,182.773 93.2244,187.773 88.5,193.5C 85.8697,195.628 83.3697,197.961 81,200.5C 84.6262,189.621 88.2929,178.621 92,167.5C 92.3811,161.518 89.5478,157.685 83.5,156C 81.1874,154.482 78.854,154.316 76.5,155.5C 85.7978,145.702 95.2978,136.035 105,126.5C 133.5,155 162,183.5 190.5,212C 183.964,218.369 177.631,224.869 171.5,231.5 Z"/></g>
<g><path style="opacity:1" fill="#f0f0f0" d="M 88.5,193.5 C 94.4422,189.227 99.7756,184.227 104.5,178.5C 107.06,175.542 110.06,173.042 113.5,171C 123.89,164.186 131.224,166.686 135.5,178.5C 133.475,187.127 131.641,195.794 130,204.5C 129.116,211.582 129.449,218.582 131,225.5C 134.302,229.277 138.136,230.111 142.5,228C 150.749,223.293 158.916,218.459 167,213.5C 167.667,215.167 167.667,216.833 167,218.5C 162.112,227.721 154.945,234.555 145.5,239C 131.412,243.423 120.912,239.256 114,226.5C 112.03,214.746 112.53,203.079 115.5,191.5C 99.6587,205.843 84.9921,221.343 71.5,238C 69.5405,238.931 67.5405,239.764 65.5,240.5C 60.1149,237.951 56.7815,233.784 55.5,228C 62.248,204.173 68.9146,180.34 75.5,156.5C 76.1667,156.5 76.5,156.167 76.5,155.5C 78.854,154.316 81.1874,154.482 83.5,156C 89.5478,157.685 92.3811,161.518 92,167.5C 88.2929,178.621 84.6262,189.621 81,200.5C 83.3697,197.961 85.8697,195.628 88.5,193.5 Z"/></g>
<g><path style="opacity:0.922" fill="#a6a6a6" d="M 104.5,178.5 C 99.7756,184.227 94.4422,189.227 88.5,193.5C 93.2244,187.773 98.5578,182.773 104.5,178.5 Z"/></g>
<g><path style="opacity:0.438" fill="#5f5f5f" d="M 226.5,193.5 C 223.167,193.5 219.833,193.5 216.5,193.5C 216.5,206.167 216.5,218.833 216.5,231.5C 215.505,218.677 215.171,205.677 215.5,192.5C 219.371,192.185 223.038,192.518 226.5,193.5 Z"/></g>
<g><path style="opacity:1" fill="#f5f5f5" d="M 226.5,193.5 C 231.892,201.938 237.059,210.605 242,219.5C 242.17,210.657 242.67,201.99 243.5,193.5C 245.5,193.5 247.5,193.5 249.5,193.5C 249.5,206.167 249.5,218.833 249.5,231.5C 245.774,231.823 242.107,231.489 238.5,230.5C 233.568,222.301 228.901,213.968 224.5,205.5C 224.013,204.527 223.513,203.527 223,202.5C 222.5,212.161 222.334,221.828 222.5,231.5C 220.5,231.5 218.5,231.5 216.5,231.5C 216.5,218.833 216.5,206.167 216.5,193.5C 219.833,193.5 223.167,193.5 226.5,193.5 Z"/></g>
<g><path style="opacity:0.3" fill="#464646" d="M 243.5,193.5 C 245.607,192.532 247.941,192.198 250.5,192.5C 250.829,205.677 250.495,218.677 249.5,231.5C 249.5,218.833 249.5,206.167 249.5,193.5C 247.5,193.5 245.5,193.5 243.5,193.5 Z"/></g>
<g><path style="opacity:1" fill="#e7e7e7" d="M 259.5,193.5 C 266.5,193.5 273.5,193.5 280.5,193.5C 280.5,195.5 280.5,197.5 280.5,199.5C 275.968,199.182 271.634,199.515 267.5,200.5C 267.336,203.187 267.503,205.854 268,208.5C 272.066,207.536 276.233,207.203 280.5,207.5C 280.5,210.167 280.5,212.833 280.5,215.5C 276.167,215.5 271.833,215.5 267.5,215.5C 267.5,218.5 267.5,221.5 267.5,224.5C 271.634,225.485 275.968,225.818 280.5,225.5C 280.5,227.5 280.5,229.5 280.5,231.5C 273.167,231.5 265.833,231.5 258.5,231.5C 258.171,218.656 258.505,205.989 259.5,193.5 Z"/></g>
<g><path style="opacity:0.185" fill="#2d2d2d" d="M 297.5,193.5 C 294.833,193.5 292.167,193.5 289.5,193.5C 289.5,206.167 289.5,218.833 289.5,231.5C 288.505,218.677 288.171,205.677 288.5,192.5C 291.713,192.19 294.713,192.523 297.5,193.5 Z"/></g>
<g><path style="opacity:1" fill="#fcfcfc" d="M 297.5,193.5 C 297.5,203.833 297.5,214.167 297.5,224.5C 302.305,225.487 307.305,225.821 312.5,225.5C 312.5,227.5 312.5,229.5 312.5,231.5C 304.833,231.5 297.167,231.5 289.5,231.5C 289.5,218.833 289.5,206.167 289.5,193.5C 292.167,193.5 294.833,193.5 297.5,193.5 Z"/></g>
<g><path style="opacity:1" fill="#f5f5f5" d="M 315.5,193.5 C 324.833,193.5 334.167,193.5 343.5,193.5C 343.5,195.5 343.5,197.5 343.5,199.5C 340.167,199.5 336.833,199.5 333.5,199.5C 333.5,210.167 333.5,220.833 333.5,231.5C 330.833,231.5 328.167,231.5 325.5,231.5C 325.5,221.167 325.5,210.833 325.5,200.5C 322.167,200.5 318.833,200.5 315.5,200.5C 315.5,198.167 315.5,195.833 315.5,193.5 Z"/></g>
<g><path style="opacity:0.171" fill="#292929" d="M 372.5,193.5 C 372.167,193.5 371.833,193.5 371.5,193.5C 364.5,193.5 357.5,193.5 350.5,193.5C 350.5,206.167 350.5,218.833 350.5,231.5C 349.505,218.677 349.171,205.677 349.5,192.5C 357.352,192.175 365.018,192.508 372.5,193.5 Z"/></g>
<g><path style="opacity:1" fill="#f4f4f4" d="M 371.5,193.5 C 371.5,195.5 371.5,197.5 371.5,199.5C 366.968,199.182 362.634,199.515 358.5,200.5C 358.336,203.187 358.503,205.854 359,208.5C 363.066,207.536 367.233,207.203 371.5,207.5C 371.5,210.167 371.5,212.833 371.5,215.5C 367.167,215.5 362.833,215.5 358.5,215.5C 358.5,218.5 358.5,221.5 358.5,224.5C 362.634,225.485 366.968,225.818 371.5,225.5C 371.5,227.5 371.5,229.5 371.5,231.5C 364.5,231.5 357.5,231.5 350.5,231.5C 350.5,218.833 350.5,206.167 350.5,193.5C 357.5,193.5 364.5,193.5 371.5,193.5 Z"/></g>
<g><path style="opacity:1" fill="#dcdcdc" d="M 391.5,192.5 C 396.97,192.246 402.304,192.913 407.5,194.5C 407.287,197.475 406.287,200.142 404.5,202.5C 393.297,197.425 387.63,200.925 387.5,213C 386.432,220.761 389.766,224.595 397.5,224.5C 400.54,224.583 403.373,223.916 406,222.5C 406.818,225.227 406.652,227.894 405.5,230.5C 388.66,236.083 379.326,230.083 377.5,212.5C 377.792,202.528 382.459,195.861 391.5,192.5 Z"/></g>
<g><path style="opacity:0.423" fill="#6e6e6e" d="M 415.5,193.5 C 414.505,205.989 414.171,218.656 414.5,231.5C 413.175,218.661 413.175,205.661 414.5,192.5C 415.107,192.624 415.44,192.957 415.5,193.5 Z"/></g>
<g><path style="opacity:1" fill="#fcfcfc" d="M 415.5,193.5 C 416.167,193.5 416.833,193.5 417.5,193.5C 418.833,193.5 420.167,193.5 421.5,193.5C 421.179,198.695 421.513,203.695 422.5,208.5C 427.5,208.5 432.5,208.5 437.5,208.5C 437.5,203.5 437.5,198.5 437.5,193.5C 438.167,193.5 438.833,193.5 439.5,193.5C 441.167,193.5 442.833,193.5 444.5,193.5C 444.5,206.167 444.5,218.833 444.5,231.5C 442.167,231.5 439.833,231.5 437.5,231.5C 437.5,225.833 437.5,220.167 437.5,214.5C 432.305,214.179 427.305,214.513 422.5,215.5C 422.5,220.833 422.5,226.167 422.5,231.5C 419.833,231.5 417.167,231.5 414.5,231.5C 414.171,218.656 414.505,205.989 415.5,193.5 Z"/></g>
<g><path style="opacity:0.604" fill="#7d7d7d" d="M 417.5,193.5 C 418.919,192.549 420.585,192.216 422.5,192.5C 422.5,197.5 422.5,202.5 422.5,207.5C 422.5,207.833 422.5,208.167 422.5,208.5C 421.513,203.695 421.179,198.695 421.5,193.5C 420.167,193.5 418.833,193.5 417.5,193.5 Z"/></g>
<g><path style="opacity:0.747" fill="#a4a4a4" d="M 439.5,193.5 C 441.265,192.539 443.265,192.205 445.5,192.5C 445.829,205.677 445.495,218.677 444.5,231.5C 444.5,218.833 444.5,206.167 444.5,193.5C 442.833,193.5 441.167,193.5 439.5,193.5 Z"/></g>
<g><path style="opacity:0.544" fill="#626262" d="M 259.5,193.5 C 266.648,192.508 273.981,192.175 281.5,192.5C 281.5,195.167 281.5,197.833 281.5,200.5C 276.833,200.5 272.167,200.5 267.5,200.5C 271.634,199.515 275.968,199.182 280.5,199.5C 280.5,197.5 280.5,195.5 280.5,193.5C 273.5,193.5 266.5,193.5 259.5,193.5 Z"/></g>
<g><path style="opacity:0.543" fill="#939393" d="M 371.5,193.5 C 371.833,193.5 372.167,193.5 372.5,193.5C 372.5,195.833 372.5,198.167 372.5,200.5C 367.833,200.5 363.167,200.5 358.5,200.5C 362.634,199.515 366.968,199.182 371.5,199.5C 371.5,197.5 371.5,195.5 371.5,193.5 Z"/></g>
<g><path style="opacity:0.478" fill="#656565" d="M 315.5,193.5 C 324.986,192.506 334.652,192.173 344.5,192.5C 344.5,195.167 344.5,197.833 344.5,200.5C 341.167,200.5 337.833,200.5 334.5,200.5C 334.828,211.014 334.494,221.347 333.5,231.5C 333.5,220.833 333.5,210.167 333.5,199.5C 336.833,199.5 340.167,199.5 343.5,199.5C 343.5,197.5 343.5,195.5 343.5,193.5C 334.167,193.5 324.833,193.5 315.5,193.5 Z"/></g>
<g><path style="opacity:0.121" fill="#353535" d="M 437.5,193.5 C 437.5,198.5 437.5,203.5 437.5,208.5C 432.5,208.5 427.5,208.5 422.5,208.5C 422.5,208.167 422.5,207.833 422.5,207.5C 427.167,207.5 431.833,207.5 436.5,207.5C 436.181,202.637 436.514,197.97 437.5,193.5 Z"/></g>
<g><path style="opacity:0.754" fill="#b0b0b0" d="M 224.5,205.5 C 223.833,214.167 223.167,222.833 222.5,231.5C 222.334,221.828 222.5,212.161 223,202.5C 223.513,203.527 224.013,204.527 224.5,205.5 Z"/></g>
<g><path style="opacity:0.287" fill="#646464" d="M 422.5,215.5 C 427.305,214.513 432.305,214.179 437.5,214.5C 437.5,220.167 437.5,225.833 437.5,231.5C 436.512,226.36 436.179,221.026 436.5,215.5C 431.833,215.5 427.167,215.5 422.5,215.5 Z"/></g>
<g><path style="opacity:0.673" fill="#acacac" d="M 267.5,224.5 C 272.167,224.5 276.833,224.5 281.5,224.5C 281.802,227.059 281.468,229.393 280.5,231.5C 280.5,229.5 280.5,227.5 280.5,225.5C 275.968,225.818 271.634,225.485 267.5,224.5 Z"/></g>
<g><path style="opacity:0.671" fill="#929292" d="M 297.5,224.5 C 302.833,224.5 308.167,224.5 313.5,224.5C 313.802,227.059 313.468,229.393 312.5,231.5C 312.5,229.5 312.5,227.5 312.5,225.5C 307.305,225.821 302.305,225.487 297.5,224.5 Z"/></g>
<g><path style="opacity:0.672" fill="#acacac" d="M 358.5,224.5 C 363.167,224.5 367.833,224.5 372.5,224.5C 372.802,227.059 372.468,229.393 371.5,231.5C 371.5,229.5 371.5,227.5 371.5,225.5C 366.968,225.818 362.634,225.485 358.5,224.5 Z"/></g>
<g><path style="opacity:0.957" fill="#b2b2b2" d="M 171.5,231.5 C 160.756,243.747 149.423,255.58 137.5,267C 136.906,267.464 136.239,267.631 135.5,267.5C 147.167,255.167 159.167,243.167 171.5,231.5 Z"/></g>
</svg>
